<?xml version="1.0" standalone="no"?>
<!DOCTYPE svg PUBLIC "-//W3C//DTD SVG 20010904//EN"
 "http://www.w3.org/TR/2001/REC-SVG-20010904/DTD/svg10.dtd">
<svg version="1.0" xmlns="http://www.w3.org/2000/svg"
 width="300.000000pt" height="300.000000pt" viewBox="0 0 300.000000 300.000000"
 preserveAspectRatio="xMidYMid meet">
<metadata>
Created by potrace 1.11, written by Peter Selinger 2001-2013
</metadata>
<g transform="translate(0.000000,300.000000) scale(0.100000,-0.100000)"
fill="#000000" stroke="none">
<path d="M1903 2820 c-63 -38 -71 -99 -21 -155 27 -31 32 -45 32 -92 1 -59 -2
-64 -44 -69 -25 -3 -29 1 -39 41 -8 33 -16 45 -30 45 -29 0 -43 -24 -36 -63 6
-29 3 -37 -13 -46 -37 -20 -49 -12 -72 45 -21 51 -22 58 -8 87 8 18 13 39 13
47 -4 39 -7 46 -20 63 -7 11 -31 25 -52 32 -32 11 -42 11 -65 -1 -83 -43 -78
-156 8 -184 39 -13 36 -10 63 -78 l21 -52 -32 -16 c-30 -15 -32 -15 -44 2 -25
36 -35 44 -55 44 -30 0 -35 -29 -11 -70 l21 -37 -28 -21 -28 -21 -45 47 c-41
42 -45 51 -41 83 4 30 0 42 -24 68 -32 36 -58 44 -106 30 -47 -13 -74 -64 -61
-115 12 -49 52 -79 103 -77 33 2 44 -4 81 -42 l42 -43 -18 -26 c-23 -31 -28
-31 -62 -6 -30 22 -56 19 -66 -7 -4 -9 7 -27 28 -47 33 -30 34 -32 20 -58 -8
-16 -18 -28 -23 -28 -5 0 -34 11 -65 25 -42 19 -56 30 -56 46 0 11 -14 34 -30
51 -27 27 -36 30 -73 25 -57 -8 -96 -53 -91 -105 7 -73 94 -117 152 -76 20 14
25 14 54 0 17 -9 36 -16 42 -16 6 0 20 -7 30 -15 15 -12 17 -17 7 -29 -11 -13
-92 -15 -609 -15 -329 0 -608 0 -622 -1 l-26 0 1 -754 c0 -415 3 -758 7 -762
5 -4 516 -8 1138 -8 997 -1 1131 1 1135 14 2 8 4 85 3 170 l-1 155 37 7 c107
22 117 151 16 192 -21 8 -41 23 -44 33 -13 40 -9 104 6 119 14 14 17 13 34
-15 21 -36 49 -48 69 -31 20 17 19 33 -6 65 l-22 27 26 26 27 26 45 -44 c38
-37 44 -49 43 -80 -2 -63 40 -112 97 -112 74 0 123 77 90 142 -20 39 -57 60
-96 55 -29 -4 -41 2 -76 36 -48 44 -52 58 -25 82 24 21 28 21 62 -3 27 -20 28
-20 51 -1 l24 19 -38 36 c-37 35 -38 36 -23 65 l16 30 60 -26 c48 -21 61 -32
70 -58 21 -62 77 -87 136 -59 60 29 74 104 28 155 -17 19 -60 36 -81 33 -7 -1
-17 -2 -22 -3 -5 0 -16 -7 -24 -15 -12 -12 -22 -11 -71 9 -32 13 -60 26 -63
29 -3 2 -1 17 4 33 8 23 15 28 39 26 52 -4 76 6 72 29 -3 23 -19 34 -60 42
-23 5 -26 10 -24 38 l2 33 64 3 c59 3 65 1 93 -27 43 -45 96 -45 140 -2 61 59
28 151 -59 167 -29 5 -80 -19 -94 -45 -8 -16 -21 -20 -75 -20 -43 0 -65 4 -66
12 -6 57 -4 61 27 67 42 9 54 18 54 40 0 27 -27 39 -67 30 -31 -7 -35 -6 -44
17 -14 39 -12 42 46 68 53 23 57 24 89 8 61 -29 135 5 147 67 11 57 -41 120
-99 120 -38 0 -88 -41 -97 -79 -5 -22 -17 -32 -58 -49 -66 -28 -69 -27 -84 5
-12 25 -10 29 24 60 l37 34 -21 21 -21 21 -38 -22 -37 -22 -23 26 -23 27 45
43 c37 36 52 44 83 43 80 -1 131 74 96 142 -19 37 -36 49 -76 54 -64 7 -117
-49 -110 -117 2 -22 -7 -38 -41 -71 l-43 -44 -29 23 -29 23 22 31 c27 38 21
71 -14 71 -16 0 -30 -10 -42 -30 -20 -34 -24 -35 -56 -17 -12 6 -24 13 -26 14
-2 1 7 29 20 62 19 47 29 62 49 66 42 10 71 41 77 84 14 105 -123 157 -178 67
-23 -38 -24 -74 -3 -104 14 -20 13 -27 -8 -82 -22 -58 -24 -60 -53 -54 -43 9
-44 10 -35 49 16 72 -45 92 -66 20 -11 -40 -14 -42 -70 -36 -7 1 -11 25 -12
62 0 55 3 64 29 87 36 33 44 70 25 117 -11 24 -26 40 -50 50 -44 19 -45 19
-83 -5z m72 -78 c3 -8 -1 -22 -9 -30 -12 -13 -18 -13 -30 -2 -19 15 -20 32 -5
47 14 14 35 7 44 -15z m-359 -75 c1 -9 -7 -22 -19 -28 -16 -9 -23 -8 -34 6 -9
14 -10 22 -1 32 15 19 51 12 54 -10z m719 2 c6 -19 -7 -38 -26 -39 -14 0 -31
31 -25 45 8 23 44 18 51 -6z m-1035 -194 c17 -20 5 -45 -20 -45 -11 0 -23 7
-26 15 -6 15 11 45 26 45 4 0 13 -7 20 -15z m1339 1 c9 -11 10 -20 1 -35 -9
-17 -15 -19 -30 -11 -22 12 -27 46 -7 53 20 9 24 8 36 -7z m-522 -61 c73 -21
159 -63 217 -105 40 -28 146 -142 162 -173 74 -141 95 -213 99 -334 6 -178
-64 -352 -195 -483 -33 -34 -95 -80 -106 -80 -5 0 -8 28 -7 62 1 35 2 73 2 85
1 19 6 21 33 18 38 -5 88 17 106 46 33 52 20 125 -26 158 -31 21 -29 21 -79
21 l-38 0 2 67 c1 38 2 92 2 121 l1 52 31 -5 c21 -4 46 2 75 16 103 49 109
189 11 250 -45 28 -127 22 -163 -12 -33 -31 -54 -71 -54 -103 l0 -26 -430 0
-429 1 10 27 c66 172 232 330 407 387 112 36 265 40 369 10z m-1019 -247 c7
-7 8 -17 1 -30 -12 -22 -32 -23 -49 -3 -23 28 21 60 48 33z m1750 -16 c4 -28
-24 -40 -45 -19 -14 13 -14 19 -3 32 18 22 44 15 48 -13z m-458 -99 c45 -57
-6 -134 -76 -117 -17 4 -24 13 -24 30 0 15 -6 24 -15 24 -21 0 -19 33 6 64 29
37 80 36 109 -1z m-255 -823 l0 -605 -987 -2 -988 -3 -1 28 c-4 159 0 1172 5
1180 4 7 333 10 988 9 l983 -2 0 -605z m779 575 c20 -20 10 -45 -19 -45 -29 0
-39 25 -19 45 9 8 17 15 19 15 2 0 10 -7 19 -15z m-542 -270 c9 -20 8 -28 -6
-44 -10 -10 -23 -18 -31 -17 -21 3 -45 27 -45 45 0 45 63 57 82 16z m476 -111
c4 -27 -26 -40 -46 -20 -21 20 -8 48 20 44 14 -2 24 -11 26 -24z m-209 -288
c17 -20 3 -46 -25 -46 -39 0 -32 54 7 59 4 1 12 -5 18 -13z m-304 -217 c5 -14
2 -25 -6 -30 -26 -16 -39 -9 -39 21 0 23 5 30 19 30 11 0 23 -9 26 -21z"/>
<path d="M1830 2369 c-89 -35 -130 -154 -80 -234 80 -129 277 -88 297 63 7 47
-22 118 -61 147 -36 27 -115 39 -156 24z m125 -94 c31 -38 30 -79 -3 -116 -31
-34 -71 -41 -111 -19 -27 14 -42 44 -43 82 -1 23 7 39 32 61 27 24 39 28 69
23 22 -3 44 -15 56 -31z"/>
<path d="M1801 975 c-70 -59 -56 -157 26 -192 67 -27 136 9 153 80 23 102 -99
178 -179 112z"/>
<path d="M465 310 c-1 -3 -2 -38 -2 -77 l-1 -73 684 0 684 0 0 78 0 77 -681 0
c-374 0 -682 -2 -684 -5z"/>
</g>
</svg>
